<svg width="25" height="25" viewBox="0 0 25 25" fill="none" xmlns="http://www.w3.org/2000/svg">
<path d="M22.2578 22.6579C18.4324 25.7807 6.48768 25.7807 2.74029 22.6579C-1.08515 19.5351 -0.694806 6.18513 2.74029 2.67198C6.17539 -0.841179 18.8228 -0.841179 22.2578 2.67198C25.6929 6.18513 26.0833 19.5352 22.2578 22.6579Z" fill="#4D4C4C"/>
<rect x="17.2725" y="6" width="2.72727" height="12.5455" rx="1.36364" fill="white"/>
<rect x="17.2725" y="6" width="2.72727" height="12.5455" rx="1.36364" fill="white"/>
<rect x="17.2725" y="6" width="2.72727" height="12.5455" rx="1.36364" fill="white"/>
<rect x="13.1816" y="8.72729" width="2.72727" height="9.81818" rx="1.36364" fill="white"/>
<rect x="13.1816" y="8.72729" width="2.72727" height="9.81818" rx="1.36364" fill="white"/>
<rect x="13.1816" y="8.72729" width="2.72727" height="9.81818" rx="1.36364" fill="white"/>
<rect x="9.09082" y="11.1819" width="2.72727" height="7.36364" rx="1.36364" fill="white"/>
<rect x="9.09082" y="11.1819" width="2.72727" height="7.36364" rx="1.36364" fill="white"/>
<rect x="9.09082" y="11.1819" width="2.72727" height="7.36364" rx="1.36364" fill="white"/>
<rect x="5" y="13.6365" width="2.72727" height="4.90909" rx="1.36364" fill="white"/>
<rect x="5" y="13.6365" width="2.72727" height="4.90909" rx="1.36364" fill="white"/>
<rect x="5" y="13.6365" width="2.72727" height="4.90909" rx="1.36364" fill="white"/>
</svg>
