<svg width="25" height="25" viewBox="0 0 25 25" fill="none" xmlns="http://www.w3.org/2000/svg">
<path d="M22.2588 22.6579C18.4334 25.7807 6.48865 25.7807 2.74127 22.6579C-1.08417 19.5351 -0.693829 6.18513 2.74127 2.67198C6.17637 -0.841179 18.8237 -0.841179 22.2588 2.67198C25.6939 6.18513 26.0843 19.5352 22.2588 22.6579Z" fill="#4D4C4C"/>
<path d="M19.9162 12.5089C19.9162 13.2896 19.2917 13.9141 18.511 13.9141H13.8268V18.5983C13.8268 19.379 13.2022 20.0036 12.4215 20.0036C11.6408 20.0036 11.0163 19.379 11.0163 18.5983V13.9141H6.33202C5.55133 13.9141 4.92676 13.2896 4.92676 12.5089C4.92676 11.7282 5.55133 11.1036 6.33202 11.1036H11.0162V6.41942C11.0162 5.63873 11.6408 5.01416 12.4215 5.01416C13.2022 5.01416 13.8267 5.63873 13.8267 6.41942V11.1036H18.5109C19.2917 11.1036 19.9162 11.7281 19.9162 12.5089Z" fill="white"/>
</svg>
