<svg width="90" height="90" viewBox="0 0 90 90" fill="none" xmlns="http://www.w3.org/2000/svg">
<path d="M80.1316 81.5683C66.36 92.8104 23.359 92.8104 9.86837 81.5683C-3.90322 70.3261 -2.49798 22.2662 9.86837 9.61882C22.2347 -3.02854 67.7652 -3.02854 80.1316 9.61882C92.4979 22.2662 93.9032 70.3263 80.1316 81.5683Z" fill="#ED7600"/>
<g opacity="0.6">
<path opacity="0.2" d="M45.2801 61.8947C32.9137 71.7316 19.1421 76.7906 6.21375 77.0716C-3.34212 60.7705 -1.37467 21.1422 9.86745 9.61904C19.9853 -0.779855 51.7442 -2.74731 70.0128 3.71688C74.5095 22.2664 65.2348 45.8747 45.2801 61.8947Z" fill="white"/>
</g>
<circle cx="43.319" cy="38.2" r="16" transform="rotate(-83.7918 43.319 38.2)" stroke="white" stroke-width="8"/>
<line x1="52.4557" y1="51.1177" x2="65.2289" y2="66.4319" stroke="white" stroke-width="9"/>
</svg>
