<svg width="426" height="88" viewBox="0 0 426 88" fill="none" xmlns="http://www.w3.org/2000/svg">
<path fill-rule="evenodd" clip-rule="evenodd" d="M348.267 51.2703C348.267 63.8574 338.063 74.0613 325.476 74.0613C312.888 74.0613 302.685 63.8574 302.685 51.2703C302.685 38.6831 312.888 28.4792 325.476 28.4792C338.063 28.4792 348.267 38.6831 348.267 51.2703ZM325.476 68.9966C335.266 68.9966 343.202 61.0603 343.202 51.2703C343.202 41.4803 335.266 33.5439 325.476 33.5439C315.686 33.5439 307.749 41.4803 307.749 51.2703C307.749 61.0603 315.686 68.9966 325.476 68.9966Z" fill="#ED7600"/>
<path fill-rule="evenodd" clip-rule="evenodd" d="M343.202 51.2702V19.194H348.267V51.2702H343.202Z" fill="#ED7600"/>
<path d="M290.023 4H311.97V26.369H321.255C321.255 26.369 300.574 31.4336 300.574 51.6923C300.574 71.951 322.099 75.7495 322.099 75.7495V84.1906C322.099 84.1906 303.634 81.6583 296.354 71.951C289.073 62.2437 290.023 50.4261 290.023 50.4261V4Z" fill="#ED7600"/>
<path d="M353.686 63.0878H350.039V29.3065H362.042C365.824 29.3065 368.711 30.2012 370.703 31.9908C372.729 33.7803 373.742 36.3633 373.742 39.7397C373.742 43.1162 372.729 45.6991 370.703 47.4886C368.711 49.2782 365.824 50.1729 362.042 50.1729H353.686V63.0878ZM361.587 46.6783C364.963 46.6783 367.225 46.0368 368.373 44.7537C369.521 43.4707 370.095 41.7993 370.095 39.7397C370.095 37.6801 369.521 36.0087 368.373 34.7257C367.225 33.4426 364.963 32.8011 361.587 32.8011H353.686V46.6783H361.587Z" fill="#952C3B"/>
<path d="M376.795 63.0878V28.1923H380.441V63.0878H376.795Z" fill="#952C3B"/>
<path d="M395.1 63.8475C391.723 63.8475 389.106 62.9865 387.249 61.2646C385.426 59.5088 384.514 57.0271 384.514 53.8195V37.8151H388.161V53.0091C388.161 55.5752 388.718 57.4661 389.832 58.6816C390.947 59.8633 392.702 60.4542 395.1 60.4542C397.463 60.4542 399.202 59.8633 400.316 58.6816C401.464 57.4661 402.038 55.5752 402.038 53.0091V37.8151H405.685V53.8195C405.685 57.0271 404.756 59.5088 402.899 61.2646C401.076 62.9865 398.476 63.8475 395.1 63.8475Z" fill="#952C3B"/>
<path d="M416.884 63.8475C415.162 63.8475 413.693 63.6787 412.478 63.3411C411.262 63.0034 409.929 62.4632 408.477 61.7204V57.8712C410.199 58.8504 411.6 59.5426 412.68 59.9477C413.795 60.3191 415.111 60.5049 416.631 60.5049C418.319 60.5049 419.686 60.1334 420.733 59.3906C421.814 58.6478 422.354 57.6855 422.354 56.5038C422.354 55.4571 422.033 54.6805 421.392 54.174C420.75 53.6338 419.737 53.0936 418.353 52.5533L417.036 51.9962C415.111 51.456 413.609 50.9664 412.528 50.5275C411.482 50.0885 410.553 49.3963 409.743 48.4509C408.966 47.5055 408.578 46.2225 408.578 44.6018C408.578 42.9811 409 41.6305 409.844 40.5501C410.688 39.4696 411.786 38.6761 413.136 38.1697C414.487 37.6294 415.905 37.3593 417.39 37.3593C418.741 37.3593 419.872 37.5113 420.784 37.8151C421.729 38.119 423.012 38.6255 424.633 39.3345V42.9811C422.945 42.137 421.645 41.5461 420.733 41.2085C419.855 40.8708 418.809 40.702 417.593 40.702C416.107 40.702 414.841 41.0059 413.795 41.6136C412.748 42.1876 412.225 43.0149 412.225 44.0953C412.225 44.9732 412.478 45.6991 412.984 46.2731C413.524 46.8134 414.183 47.2523 414.959 47.5899C415.77 47.8938 416.85 48.2315 418.201 48.6029C419.889 49.1431 421.223 49.6327 422.202 50.0716C423.215 50.5106 424.093 51.2196 424.836 52.1988C425.612 53.1442 426 54.4273 426 56.0479C426 57.7699 425.561 59.2218 424.684 60.4036C423.806 61.5516 422.658 62.4125 421.24 62.9865C419.855 63.5605 418.403 63.8475 416.884 63.8475Z" fill="#952C3B"/>
<line x1="238.5" y1="2.18557e-08" x2="238.5" y2="88" stroke="#C4C4C4"/>
<path d="M8.03651 17.7463C8.21627 17.5112 8.43753 17.3177 8.68644 17.1794C9.23957 16.8751 10.0693 16.7507 10.3182 18.5622C10.65 21.0375 13.1115 20.7747 13.637 20.7056C13.7199 20.6917 13.8029 20.6917 13.872 20.6779L35.5962 19.6685H35.693C36.0111 19.6408 38.4587 19.5025 36.2185 22.4341C33.8262 25.5731 20.9106 41.2405 16.6792 48.7078C12.4477 56.175 12.0744 58.9407 16.5824 60.047C21.0627 61.1394 27.5344 60.6139 37.3524 58.7056C37.4907 58.678 37.629 58.6365 37.7534 58.5812C38.0162 58.4705 38.431 58.4014 37.6013 59.5768C36.7025 60.8628 31.5307 67.694 29.6777 70.1416C29.2629 70.6947 28.6268 71.0266 27.9354 71.0543C24.0635 71.2064 11.0096 71.635 8.18862 71.0128C4.88367 70.2799 -1.78156 69.6438 0.762844 62.1212C0.7905 62.0244 0.831987 61.9276 0.873472 61.8446C1.35746 60.8628 4.38585 54.9443 10.1661 48.4865C10.1937 48.4589 10.2214 48.4174 10.249 48.3759L22.6945 32.5702C22.7636 32.4872 22.8327 32.4043 22.9157 32.3351C23.1231 32.1415 23.4965 31.5331 19.6937 31.8373C19.6522 31.8373 19.5969 31.8373 19.5554 31.8511C18.7257 31.9618 10.4565 33.068 3.47318 31.9479C3.4317 31.9479 3.37638 31.9341 3.3349 31.9341C2.7956 31.8788 -0.910376 31.4225 0.209713 28.0622C0.347996 27.6197 6.93025 19.1706 8.03651 17.7463Z" fill="#FD0B00"/>
<path d="M42.1778 26.8038L48.8984 21.715C49.2579 21.4523 49.7419 21.5214 50.0185 21.8671C50.0461 21.8948 50.0738 21.9363 50.0876 21.9778C50.7928 23.3191 52.3831 25.8082 54.5403 26.0848C54.6647 26.0986 54.7754 26.1401 54.886 26.2092C55.0796 26.3475 55.2594 26.6379 54.6648 27.1081C53.8074 27.7856 49.7142 31.2427 49.1196 31.7543C49.0643 31.7958 49.009 31.8373 48.9537 31.865C48.4697 32.1001 46.2572 33.0265 44.3765 31.8373C44.3489 31.8235 44.335 31.8097 44.3074 31.7958C44.0723 31.6161 42.6203 30.413 41.8874 27.6474C41.8045 27.3293 41.9151 26.9974 42.1778 26.8038Z" fill="#FD0B00"/>
<path d="M39.0115 43.9508C38.7626 44.0753 38.4722 43.9785 38.3477 43.7296C38.3477 43.7296 38.3477 43.7158 38.3339 43.7158C38.3339 43.7019 38.3201 43.7019 38.3201 43.6881C38.1265 43.2179 38.1126 42.4436 39.371 41.5862C41.4038 40.2034 49.7007 34.4923 49.7007 34.4923C49.7007 34.4923 52.7429 32.4596 53.2961 36.8846C53.8215 41.0331 54.4991 61.8861 54.5821 64.4581C54.5821 64.6241 54.513 64.7762 54.3747 64.873L45.7182 71.4691C45.4969 71.635 45.1789 71.5935 44.9991 71.3723C44.93 71.2893 44.8885 71.1787 44.8885 71.068V49.2471C44.8885 49.2471 44.7226 41.0884 39.0115 43.9508Z" fill="#FD0B00"/>
<path d="M57.0569 44.8082C56.9463 44.8773 56.7942 44.8635 56.6974 44.7667C56.407 44.4486 56.0474 43.6328 57.7068 42.2499C59.8502 40.4661 66.6537 35.3082 67.0824 34.9901C67.0962 34.9763 67.1101 34.9625 67.1377 34.9625C67.4834 34.7965 70.8298 33.3999 71.4383 39.9545C72.0882 46.8548 72.3648 46.2187 72.3648 51.9989V52.0542C72.4063 52.2339 72.6552 53.1328 73.7476 51.3766C74.9507 49.4406 85.5431 36.0411 88.129 34.7135C88.129 34.7135 92.1807 31.8234 94.0337 40.2172C95.7622 48.1131 97.6705 62.8679 97.8917 64.5826C97.9056 64.6794 97.8641 64.79 97.7811 64.8453L89.6639 71.0127C89.5395 71.1095 89.3597 71.0819 89.2629 70.9574C89.2353 70.9159 89.2076 70.8606 89.2076 70.8053C89.0278 68.2886 88.1705 57.4334 86.3037 51.75V51.7361C86.2484 51.5287 84.6581 45.7208 79.9427 49.1641C79.9427 49.1641 73.5817 53.437 66.2804 71.1648C66.2389 71.2755 66.1282 71.3446 66.0176 71.3446H64.3582C64.1923 71.3446 64.0678 71.2201 64.0678 71.0542C64.0678 68.7311 64.0817 53.0498 62.7956 48.2652V48.2376C62.7265 47.9057 61.7447 42.0149 57.0569 44.8082Z" fill="#FD0B00"/>
<path d="M108.236 45.1401C105.899 47.1728 102.774 50.0215 101.82 51.4181C101.723 51.5426 101.668 51.6947 101.654 51.8606C101.46 53.2849 100.506 61.167 103.341 65.0943C105.996 68.7726 108.996 70.3905 109.84 70.7915C109.992 70.8606 110.144 70.9021 110.31 70.9021H116.325C116.408 70.9021 116.491 70.8883 116.574 70.8745C117.446 70.667 122.299 69.2427 127.319 62.1488C132.021 55.4836 132.062 53.686 131.965 53.2988C131.938 53.2158 131.924 53.119 131.924 53.0222L131.979 45.4028C131.979 45.3199 131.965 45.2231 131.951 45.1401C131.675 44.0753 129.656 37.0782 122.438 34.8657C122.438 34.8657 116.948 32.6808 108.706 39.4152C108.25 39.7886 108.167 40.4523 108.54 40.9225C108.748 41.1852 109.079 41.3373 109.411 41.3235H109.48C109.508 41.3235 109.55 41.3235 109.577 41.3097C110.296 41.2129 119.852 40.2172 123.959 52.635C123.986 52.7318 124 52.8286 124.014 52.9254L124.36 59.7427C124.373 59.881 124.346 60.0193 124.304 60.1437C124.069 60.8075 123.24 62.8817 121.705 63.3519C121.705 63.3519 115.205 66.9196 109.771 54.5433C109.729 54.4603 109.702 54.3635 109.688 54.2667C109.342 51.5702 109.439 48.8322 109.992 46.1634C110.103 45.5826 109.729 45.0156 109.149 44.905C108.831 44.8497 108.485 44.9327 108.236 45.1401Z" fill="#FD0B00"/>
<path d="M150.177 65.2049L143.498 71.0819C143.291 71.2617 143.001 71.3308 142.738 71.2479C141.48 70.8607 137.787 69.6161 136.308 67.8046C136.086 67.5419 135.976 67.1962 135.976 66.8505V66.3527C135.976 65.6198 136.294 64.9283 136.847 64.4444L148.974 53.9487L143.899 45.3752C143.899 45.3752 141.231 42.7893 140.028 42.5127C139.06 42.2915 136.377 42.0702 135.354 41.9873C134.994 41.9596 134.704 41.6554 134.731 41.282C134.731 41.2129 134.745 41.1576 134.773 41.1023C134.87 40.8672 135.077 40.6044 135.52 40.3141L141.327 36.4421L164.103 68.5237C164.103 68.5237 161.613 72.0222 159.498 69.1736C157.382 66.325 150.371 55.9953 150.371 55.9953L146.389 59.3417C145.669 59.9363 145.255 60.8214 145.255 61.7478C145.255 63.0615 146.153 64.6794 150.177 65.2049Z" fill="#FD0B00"/>
<path d="M156.593 38.7514L163.189 32.9435C163.452 32.7084 163.812 32.6393 164.143 32.7361C165.429 33.1371 168.651 34.2572 170.2 35.8613C170.574 36.2623 170.795 36.7878 170.781 37.3409V37.7557C170.781 38.3918 170.504 38.9864 170.034 39.4013L157.782 49.9937L162.595 58.1247C162.774 58.429 162.996 58.7055 163.258 58.9406C164.047 59.6597 165.817 61.2223 166.729 61.4297C167.67 61.651 170.283 61.8722 171.348 61.9552C171.735 61.9828 172.026 62.3285 171.998 62.7157C171.984 62.8264 171.943 62.9508 171.887 63.0476C171.721 63.2965 171.5 63.5039 171.237 63.6561L165.429 67.528L142.654 35.4464C142.654 35.4464 145.143 31.9479 147.259 34.7965C149.375 37.6451 156.386 47.9748 156.386 47.9748L160.368 44.6284C161.087 44.0338 161.502 43.1487 161.502 42.2223C161.516 40.8947 160.617 39.2768 156.593 38.7514Z" fill="#FD0B00"/>
</svg>
