<svg width="90" height="90" viewBox="0 0 90 90" fill="none" xmlns="http://www.w3.org/2000/svg">
<path d="M80.1316 81.5683C66.36 92.8104 23.359 92.8104 9.86837 81.5683C-3.90322 70.3261 -2.49798 22.2662 9.86837 9.61882C22.2347 -3.02854 67.7652 -3.02854 80.1316 9.61882C92.4979 22.2662 93.9032 70.3263 80.1316 81.5683Z" fill="#E24C4B"/>
<g opacity="0.6">
<path opacity="0.2" d="M45.281 61.8947C32.9147 71.7316 19.1431 76.7906 6.21472 77.0716C-3.34115 60.7705 -1.37369 21.1422 9.86843 9.61904C19.9863 -0.779854 51.7452 -2.74731 70.0137 3.71688C74.5105 22.2664 65.2358 45.8747 45.281 61.8947Z" fill="white"/>
</g>
<path d="M67.6014 44.5347C67.6014 47.8696 64.8224 50.6487 61.4875 50.6487H27.5827C24.2478 50.6487 21.4688 47.8696 21.4688 44.5347C21.4688 41.1997 24.2478 38.4207 27.5827 38.4207H61.2096C64.8222 38.4207 67.6014 41.1997 67.6014 44.5347Z" fill="white"/>
</svg>
