<svg width="90" height="90" viewBox="0 0 90 90" fill="none" xmlns="http://www.w3.org/2000/svg">
<path d="M80.1316 81.5683C66.36 92.8104 23.359 92.8104 9.86837 81.5683C-3.90322 70.3261 -2.49798 22.2662 9.86837 9.61882C22.2347 -3.02854 67.7652 -3.02854 80.1316 9.61882C92.4979 22.2662 93.9032 70.3263 80.1316 81.5683Z" fill="black"/>
<g opacity="0.6">
<path opacity="0.2" d="M45.281 61.8947C32.9147 71.7316 19.1431 76.7905 6.21472 77.0716C-3.34115 60.7705 -1.37369 21.1422 9.86843 9.61904C19.9863 -0.779854 51.7452 -2.74731 70.0137 3.71688C74.5105 22.2664 65.2358 45.8747 45.281 61.8947Z" fill="white"/>
</g>
<path d="M69.9014 33.1965C69.2662 32.9161 68.5243 33.0552 68.0344 33.5456L63.0611 38.5166L53.9887 36.9124L52.3837 27.8394L57.3573 22.8685C57.8468 22.378 57.986 21.6368 57.7062 21.0016C57.4266 20.3672 56.7833 19.9689 56.0916 20.0019C52.7023 20.1602 49.3614 21.5285 46.7721 24.1184C42.796 28.093 41.6969 33.8374 43.4392 38.8082L23.9305 58.3211C21.4867 60.7634 21.4867 64.7248 23.9305 67.1679C25.1024 68.3406 26.693 68.9999 28.3528 68.9999C30.011 68.9999 31.603 68.3405 32.7749 67.1687L52.3805 47.563C57.2845 49.1623 62.8866 48.0269 66.7819 44.1292C69.3712 41.5406 70.7401 38.2005 70.9002 34.812C70.9308 34.1195 70.5365 33.4777 69.9014 33.1965ZM31.3913 63.4367C30.3618 64.4663 28.6905 64.4663 27.661 63.4367C26.6297 62.4055 26.6297 60.7359 27.661 59.7046C28.6905 58.6752 30.3618 58.6752 31.3913 59.7046C32.4211 60.7359 32.4211 62.4054 31.3913 63.4367Z" fill="white"/>
</svg>
