<svg width="90" height="90" viewBox="0 0 90 90" fill="none" xmlns="http://www.w3.org/2000/svg">
<path d="M80.1316 81.5683C66.36 92.8104 23.359 92.8104 9.86837 81.5683C-3.90322 70.3261 -2.49798 22.2662 9.86837 9.61882C22.2347 -3.02854 67.7652 -3.02854 80.1316 9.61882C92.4979 22.2662 93.9032 70.3263 80.1316 81.5683Z" fill="#4086C6"/>
<g opacity="0.6">
<path opacity="0.2" d="M45.281 61.8947C32.9147 71.7316 19.1431 76.7906 6.21472 77.0716C-3.34115 60.7705 -1.37369 21.1422 9.86843 9.61904C19.9863 -0.779854 51.7452 -2.74731 70.0137 3.71688C74.5105 22.2664 65.2358 45.8747 45.281 61.8947Z" fill="white"/>
</g>
<rect x="17" y="40" width="57" height="10" rx="5" fill="white"/>
<rect x="17" y="40" width="57" height="10" rx="5" fill="white"/>
<rect x="17" y="40" width="57" height="10" rx="5" fill="white"/>
<rect x="17" y="59" width="50" height="10" rx="5" fill="white"/>
<rect x="17" y="59" width="50" height="10" rx="5" fill="white"/>
<rect x="17" y="59" width="50" height="10" rx="5" fill="white"/>
<rect x="17" y="21" width="46" height="10" rx="5" fill="white"/>
<rect x="17" y="21" width="46" height="10" rx="5" fill="white"/>
<rect x="17" y="21" width="46" height="10" rx="5" fill="white"/>
</svg>
