<?xml version="1.0" encoding="utf-8"?>
<!-- Generator: Adobe Illustrator 23.0.4, SVG Export Plug-In . SVG Version: 6.00 Build 0)  -->
<svg version="1.1" id="Layer_1" xmlns="http://www.w3.org/2000/svg" xmlns:xlink="http://www.w3.org/1999/xlink" x="0px" y="0px"
	 viewBox="0 0 1920 394.6" style="enable-background:new 0 0 1920 394.6;" xml:space="preserve">
<style type="text/css">
	.st0{fill:#DA241B;}
</style>
<title>logo_warranty</title>
<g id="H_Path_2">
	<path class="st0" d="M369.5,5.4c1.3-1.7,2.9-3.1,4.7-4.1c4-2.2,10-3.1,11.8,10c2.4,17.9,20.2,16,24,15.5c0.6-0.1,1.2-0.1,1.7-0.2
		l157.1-7.3h0.7c2.3-0.2,20-1.2,3.8,20C556,62,462.6,175.3,432,229.3s-33.3,74-0.7,82c32.4,7.9,79.2,4.1,150.2-9.7
		c1-0.2,2-0.5,2.9-0.9c1.9-0.8,4.9-1.3-1.1,7.2c-6.5,9.3-43.9,58.7-57.3,76.4c-3,4-7.6,6.4-12.6,6.6c-28,1.1-122.4,4.2-142.8-0.3
		c-23.9-5.3-72.1-9.9-53.7-64.3c0.2-0.7,0.5-1.4,0.8-2c3.5-7.1,25.4-49.9,67.2-96.6c0.2-0.2,0.4-0.5,0.6-0.8l90-114.3
		c0.5-0.6,1-1.2,1.6-1.7c1.5-1.4,4.2-5.8-23.3-3.6c-0.3,0-0.7,0-1,0.1c-6,0.8-65.8,8.8-116.3,0.7c-0.3,0-0.7-0.1-1-0.1
		c-3.9-0.4-30.7-3.7-22.6-28C313.9,76.8,361.5,15.7,369.5,5.4z"/>
	<path class="st0" d="M616.4,70.9L665,34.1c2.6-1.9,6.1-1.4,8.1,1.1c0.2,0.2,0.4,0.5,0.5,0.8c5.1,9.7,16.6,27.7,32.2,29.7
		c0.9,0.1,1.7,0.4,2.5,0.9c1.4,1,2.7,3.1-1.6,6.5c-6.2,4.9-35.8,29.9-40.1,33.6c-0.4,0.3-0.8,0.6-1.2,0.8
		c-3.5,1.7-19.5,8.4-33.1-0.2c-0.2-0.1-0.3-0.2-0.5-0.3c-1.7-1.3-12.2-10-17.5-30C613.7,74.7,614.5,72.3,616.4,70.9z"/>
	<path class="st0" d="M593.5,194.9c-1.8,0.9-3.9,0.2-4.8-1.6c0,0,0-0.1-0.1-0.1c0-0.1-0.1-0.1-0.1-0.2c-1.4-3.4-1.5-9,7.6-15.2
		c14.7-10,74.7-51.3,74.7-51.3s22-14.7,26,17.3c3.8,30,8.7,180.8,9.3,199.4c0,1.2-0.5,2.3-1.5,3L642,393.9c-1.6,1.2-3.9,0.9-5.2-0.7
		c-0.5-0.6-0.8-1.4-0.8-2.2V233.2C636,233.2,634.8,174.2,593.5,194.9z"/>
	<path class="st0" d="M724,201.1c-0.8,0.5-1.9,0.4-2.6-0.3c-2.1-2.3-4.7-8.2,7.3-18.2c15.5-12.9,64.7-50.2,67.8-52.5
		c0.1-0.1,0.2-0.2,0.4-0.2c2.5-1.2,26.7-11.3,31.1,36.1c4.7,49.9,6.7,45.3,6.7,87.1v0.4c0.3,1.3,2.1,7.8,10-4.9
		c8.7-14,85.3-110.9,104-120.5c0,0,29.3-20.9,42.7,39.8c12.5,57.1,26.3,163.8,27.9,176.2c0.1,0.7-0.2,1.5-0.8,1.9l-58.7,44.6
		c-0.9,0.7-2.2,0.5-2.9-0.4c0,0,0,0,0,0c-0.2-0.3-0.4-0.7-0.4-1.1c-1.3-18.2-7.5-96.7-21-137.8v-0.1c-0.4-1.5-11.9-43.5-46-18.6
		c0,0-46,30.9-98.8,159.1c-0.3,0.8-1.1,1.3-1.9,1.3h-12c-1.2,0-2.1-0.9-2.1-2.1l0,0c0-16.8,0.1-130.2-9.2-164.8v-0.2
		C765,223.5,757.9,180.9,724,201.1z"/>
	<path class="st0" d="M1094.1,203.5c-16.9,14.7-39.5,35.3-46.4,45.4c-0.7,0.9-1.1,2-1.2,3.2c-1.4,10.3-8.3,67.3,12.2,95.7
		c19.2,26.6,40.9,38.3,47,41.2c1.1,0.5,2.2,0.8,3.4,0.8h43.5c0.6,0,1.2-0.1,1.8-0.2c6.3-1.5,41.4-11.8,77.7-63.1
		c34-48.2,34.3-61.2,33.6-64c-0.2-0.6-0.3-1.3-0.3-2l0.4-55.1c0-0.6-0.1-1.3-0.2-1.9c-2-7.7-16.6-58.3-68.8-74.3
		c0,0-39.7-15.8-99.3,32.9c-3.3,2.7-3.9,7.5-1.2,10.9c1.5,1.9,3.9,3,6.3,2.9h0.5c0.2,0,0.5,0,0.7-0.1c5.2-0.7,74.3-7.9,104,81.9
		c0.2,0.7,0.3,1.4,0.4,2.1l2.5,49.3c0.1,1-0.1,2-0.4,2.9c-1.7,4.8-7.7,19.8-18.8,23.2c0,0-47,25.8-86.3-63.7c-0.3-0.6-0.5-1.3-0.6-2
		c-2.5-19.5-1.8-39.3,2.2-58.6c0.8-4.2-1.9-8.3-6.1-9.1C1098.4,201.4,1095.9,202,1094.1,203.5z"/>
	<path class="st0" d="M1397.4,348.6l-48.3,42.5c-1.5,1.3-3.6,1.8-5.5,1.2c-9.1-2.8-35.8-11.8-46.5-24.9c-1.6-1.9-2.4-4.4-2.4-6.9
		v-3.6c0-5.3,2.3-10.3,6.3-13.8l87.7-75.9l-36.7-62c0,0-19.3-18.7-28-20.7c-7-1.6-26.4-3.2-33.8-3.8c-2.6-0.2-4.7-2.4-4.5-5.1
		c0,0,0,0,0,0c0-0.5,0.1-0.9,0.3-1.3c0.7-1.7,2.2-3.6,5.4-5.7l42-28l164.7,232c0,0-18,25.3-33.3,4.7s-66-95.3-66-95.3l-28.8,24.2
		c-5.2,4.3-8.2,10.7-8.2,17.4C1361.8,333.1,1368.3,344.8,1397.4,348.6z"/>
	<path class="st0" d="M1443.8,157.3l47.7-42c1.9-1.7,4.5-2.2,6.9-1.5c9.3,2.9,32.6,11,43.8,22.6c2.7,2.9,4.3,6.7,4.2,10.7v3
		c0,4.6-2,8.9-5.4,11.9l-88.6,76.6l34.8,58.8c1.3,2.2,2.9,4.2,4.8,5.9c5.7,5.2,18.5,16.5,25.1,18c6.8,1.6,25.7,3.2,33.4,3.8
		c2.8,0.2,4.9,2.7,4.7,5.5c-0.1,0.8-0.4,1.7-0.8,2.4c-1.2,1.8-2.8,3.3-4.7,4.4l-42,28l-164.7-232c0,0,18-25.3,33.3-4.7
		s66,95.3,66,95.3l28.8-24.2c5.2-4.3,8.2-10.7,8.2-17.4C1479.4,172.8,1472.9,161.1,1443.8,157.3z"/>
</g>
</svg>
