<svg width="90" height="90" viewBox="0 0 90 90" fill="none" xmlns="http://www.w3.org/2000/svg">
<path d="M80.1316 81.5683C66.36 92.8104 23.359 92.8104 9.86837 81.5683C-3.90322 70.3261 -2.49798 22.2662 9.86837 9.61882C22.2347 -3.02854 67.7652 -3.02854 80.1316 9.61882C92.4979 22.2662 93.9032 70.3263 80.1316 81.5683Z" fill="#8DC640"/>
<g opacity="0.6">
<path opacity="0.2" d="M45.281 61.8947C32.9147 71.7316 19.1431 76.7906 6.21472 77.0716C-3.34115 60.7705 -1.37369 21.1422 9.86843 9.61904C19.9863 -0.779854 51.7452 -2.74731 70.0137 3.71688C74.5105 22.2664 65.2358 45.8747 45.281 61.8947Z" fill="white"/>
</g>
<path d="M71.7004 45.0318C71.7004 47.8422 69.452 50.0907 66.6415 50.0907H49.7784V66.9538C49.7784 69.7643 47.5299 72.0127 44.7194 72.0127C41.909 72.0127 39.6605 69.7643 39.6605 66.9538V50.0907H22.7972C19.9867 50.0907 17.7383 47.8422 17.7383 45.0318C17.7383 42.2213 19.9867 39.9728 22.7972 39.9728H39.6603V23.1097C39.6603 20.2992 41.9088 18.0508 44.7192 18.0508C47.5297 18.0508 49.7782 20.2992 49.7782 23.1097V39.9728H66.6413C69.452 39.9728 71.7004 42.2211 71.7004 45.0318Z" fill="white"/>
</svg>
