<svg width="90" height="90" viewBox="0 0 90 90" fill="none" xmlns="http://www.w3.org/2000/svg">
<g clip-path="url(#clip0)">
<path d="M80.071 81.435C66.2994 92.6771 23.2984 92.6771 9.80782 81.435C-3.96377 70.1928 -2.55853 22.1329 9.80782 9.48552C22.1742 -3.16184 67.7047 -3.16184 80.071 9.48552C92.4374 22.1329 93.8426 70.193 80.071 81.435Z" fill="#E2A64B"/>
<g opacity="0.6">
<path opacity="0.2" d="M45.281 61.8947C32.9147 71.7316 19.1431 76.7906 6.21472 77.0716C-3.34115 60.7705 -1.37369 21.1422 9.86843 9.61904C19.9863 -0.779854 51.7452 -2.74731 70.0137 3.71688C74.5105 22.2664 65.2358 45.8747 45.281 61.8947Z" fill="white"/>
</g>
<rect x="63" y="22" width="10" height="46" rx="5" fill="white"/>
<rect x="63" y="22" width="10" height="46" rx="5" fill="white"/>
<rect x="63" y="22" width="10" height="46" rx="5" fill="white"/>
<rect x="48" y="32" width="10" height="36" rx="5" fill="white"/>
<rect x="48" y="32" width="10" height="36" rx="5" fill="white"/>
<rect x="48" y="32" width="10" height="36" rx="5" fill="white"/>
<rect x="33" y="41" width="10" height="27" rx="5" fill="white"/>
<rect x="33" y="41" width="10" height="27" rx="5" fill="white"/>
<rect x="33" y="41" width="10" height="27" rx="5" fill="white"/>
<rect x="18" y="50" width="10" height="18" rx="5" fill="white"/>
<rect x="18" y="50" width="10" height="18" rx="5" fill="white"/>
<rect x="18" y="50" width="10" height="18" rx="5" fill="white"/>
</g>
<defs>
<clipPath id="clip0">
<rect width="90" height="90" fill="white"/>
</clipPath>
</defs>
</svg>
