<svg width="90" height="90" viewBox="0 0 90 90" fill="none" xmlns="http://www.w3.org/2000/svg">
<path d="M80.1316 81.5683C66.36 92.8104 23.359 92.8104 9.86837 81.5683C-3.90322 70.3261 -2.49798 22.2662 9.86837 9.61882C22.2347 -3.02854 67.7652 -3.02854 80.1316 9.61882C92.4979 22.2662 93.9032 70.3263 80.1316 81.5683Z" fill="#4B6CE2"/>
<g opacity="0.6">
<path opacity="0.2" d="M45.281 61.8947C32.9147 71.7316 19.1431 76.7905 6.21472 77.0716C-3.34115 60.7705 -1.37369 21.1422 9.86843 9.61904C19.9863 -0.779854 51.7452 -2.74731 70.0137 3.71688C74.5105 22.2664 65.2358 45.8747 45.281 61.8947Z" fill="white"/>
</g>
<circle cx="46" cy="31" r="10" stroke="white" stroke-width="10"/>
<path d="M66 62C66 62.6843 65.8975 63.0199 65.8492 63.1407C65.8132 63.2307 65.7922 63.2489 65.7608 63.2762C65.605 63.4112 64.953 63.8179 63.0458 64.0609C61.2023 64.2958 58.8518 64.3055 55.8602 64.2282C55.0556 64.2074 54.2036 64.1803 53.3158 64.152C51.0455 64.0797 48.5416 64 46 64C43.4584 64 40.9545 64.0797 38.6842 64.152C37.7964 64.1803 36.9444 64.2074 36.1398 64.2282C33.1482 64.3055 30.7977 64.2958 28.9542 64.0609C27.047 63.8179 26.395 63.4112 26.2392 63.2762C26.2078 63.2489 26.1868 63.2307 26.1508 63.1407C26.1025 63.0199 26 62.6843 26 62C26 59.4514 27.5162 56.5738 31.1339 54.1138C34.7251 51.6718 39.966 50 46 50C52.034 50 57.2749 51.6718 60.8661 54.1138C64.4838 56.5738 66 59.4514 66 62Z" stroke="white" stroke-width="10"/>
</svg>
